999
FreeCAD v0.21 33771 (Git)
  0
SECTION
  2
HEADER
  9
$ACADVER
  1
AC1014
  9
$ACADMAINTVER
 70
     9
  9
$DWGCODEPAGE
  3
ANSI_1252
  9
$TEXTSTYLE
  7
STANDARD
  9
$DIMSTYLE
  2
STANDARD
  9
$DIMTXSTY
  7
STANDARD
  9
$CMLSTYLE
  2
STANDARD
  9
$LUNITS
 70
2
  9
$INSUNITS
 70
4
  9
$PEXTMAX
 10
50
 20
50
 30
50
  9
$PEXTMIN
 10
0
 20
0
 30
0
  9
$HANDSEED
  5
FFFF
  0
ENDSEC
  0
SECTION
  2
CLASSES
  0
CLASS
  1
ACDBDICTIONARYWDFLT
  2
AcDbDictionaryWithDefault
  3
ObjectDBX Classes
 90
        0
280
     0
281
     0
  0
CLASS
  1
XRECORD
  2
AcDbXrecord
  3
ObjectDBX Classes
 90
        0
280
     0
281
     0
  0
CLASS
  1
LWPOLYLINE
  2
AcDbPolyline
  3
ObjectDBX Classes
 90
        0
280
     0
281
     1
  0
ENDSEC
  0
SECTION
  2
TABLES
  0
TABLE
  2
VPORT
  5
20
330
0
100
AcDbSymbolTable
 70
     1
  0
VPORT
  5
21
330
20
100
AcDbSymbolTableRecord
100
AcDbViewportTableRecord
  2
*ACTIVE
 70
     0
  0
ENDTAB
  0
TABLE
  2
LTYPE
  5
22
330
0
100
AcDbSymbolTable
 70
     1
  0
LTYPE
  5
23
330
21
100
AcDbSymbolTableRecord
100
AcDbLinetypeTableRecord
  2
BYBLOCK
 70
     0
  3

 72
    65
 73
     0
 40
0.0
  0
LTYPE
  5
24
330
21
100
AcDbSymbolTableRecord
100
AcDbLinetypeTableRecord
  2
BYLAYER
 70
     0
  3

 72
    65
 73
     0
 40
0.0
  0
LTYPE
  5
25
330
21
100
AcDbSymbolTableRecord
100
AcDbLinetypeTableRecord
  2
CONTINUOUS
 70
     0
  3
Solid line
 72
    65
 73
     0
 40
0.0
  0
ENDTAB
  0
TABLE
  2
LAYER
  5
A7A
330
0
100
AcDbSymbolTable
 70
3
  0
LAYER
  5
A7B
330
A7A
100
AcDbSymbolTableRecord
100
AcDbLayerTableRecord
  2
0
 70
   0
 62
   7
  6
CONTINUOUS
  0
LAYER
  5
A7C
330
A7A
100
AcDbSymbolTableRecord
100
AcDbLayerTableRecord
  2
none
 70
    0
 62
    7
  6
CONTINUOUS
  0
LAYER
  5
A7D
330
A7A
100
AcDbSymbolTableRecord
100
AcDbLayerTableRecord
  2
Part__Feature
 70
    0
 62
    7
  6
CONTINUOUS
  0
ENDTAB
  0
TABLE
  2
STYLE
  5
70
330
0
100
AcDbSymbolTable
 70
     2
  0
STYLE
  5
71
330
70
100
AcDbSymbolTableRecord
100
AcDbTextStyleTableRecord
  2
STANDARD
 70
     0
 40
0.0
 41
1.0
 50
0.0
 71
     0
 42
2.5
  3
arial.ttf
  4

  0
STYLE
  5
72
330
70
100
AcDbSymbolTableRecord
100
AcDbTextStyleTableRecord
  2
ANNOTATIVE
 70
     0
 40
0.0
 41
1.0
 50
0.0
 71
     0
 42
2.5
  3
arial.ttf
  4

  0
ENDTAB
  0
TABLE
  2
VIEW
  5
73
330
0
100
AcDbSymbolTable
 70
     0
  0
ENDTAB
  0
TABLE
  2
UCS
  5
74
330
0
100
AcDbSymbolTable
 70
     0
  0
ENDTAB
  0
TABLE
  2
APPID
  5
75
330
0
100
AcDbSymbolTable
 70
     2
  0
APPID
  5
76
330
75
100
AcDbSymbolTableRecord
100
AcDbRegAppTableRecord
  2
ACAD
 70
     0
  0
APPID
  5
77
330
75
100
AcDbSymbolTableRecord
100
AcDbRegAppTableRecord
  2
ACADANNOTATIVE
 70
     0
  0
ENDTAB
  0
TABLE
  2
DIMSTYLE
  5
78
330
0
100
AcDbSymbolTable
 70
     2
  0
DIMSTYLE
105
79
330
78
100
AcDbSymbolTableRecord
100
AcDbDimStyleTableRecord
  2
STANDARD
 70
     0
  3

  4

  5

  6

  7

 40
0.0
 41
2.5
 42
0.625
 43
3.75
 44
1.25
 45
0.0
 46
0.0
 47
0.0
 48
0.0
140
2.5
141
2.5
142
0.0
143
0.03937007874016
144
1.0
145
0.0
146
1.0
147
0.625
 71
     0
 72
     0
 73
     0
 74
     0
 75
     0
 76
     0
 77
     1
 78
     8
170
     0
171
     3
172
     1
173
     0
174
     0
175
     0
176
     0
177
     0
178
     0
270
     2
271
     2
272
     2
273
     2
274
     3
340
71
275
     0
280
     0
281
     0
282
     0
283
     0
284
     8
285
     0
286
     0
287
     3
288
     0
  0
ENDTAB
  0
TABLE
  2
BLOCK_RECORD
  5
A01
330
0
100
AcDbSymbolTable
  70
5
  0
BLOCK_RECORD
  5
A02
330
A01
100
AcDbSymbolTableRecord
100
AcDbBlockTableRecord
  2
*MODEL_SPACE
  0
BLOCK_RECORD
  5
A03
330
A01
100
AcDbSymbolTableRecord
100
AcDbBlockTableRecord
  2
*PAPER_SPACE
  0
ENDTAB
  0
ENDSEC
  0
SECTION
  2
BLOCKS
  0
BLOCK
  5
A04
330
A02
100
AcDbEntity
  8
0
100
AcDbBlockBegin
  2
*MODEL_SPACE
 70
   0
 10
0
 20
0
 30
0
  3
*MODEL_SPACE
  1
 
  0
ENDBLK
  5
A05
330
A02
100
AcDbEntity
  8
0
100
AcDbBlockEnd
  0
BLOCK
  5
A06
330
A03
100
AcDbEntity
 67
1
  8
0
100
AcDbBlockBegin
  2
*PAPER_SPACE
 70
   0
 10
0
 20
0
 30
0
  3
*PAPER_SPACE
  1
 
  0
ENDBLK
  5
A07
330
A03
100
AcDbEntity
 67
    1
  8
0
100
AcDbBlockEnd
  0
ENDSEC
  0
SECTION
  2
ENTITIES
  0
ARC
  5
A08
330
A02
100
AcDbEntity
  8
Part__Feature
100
AcDbCircle
 10
112.057
 20
-9.243
 30
0
 40
1.99999
100
AcDbArc
 50
89.996
 51
179.995
  0
LINE
  5
A09
330
A02
100
AcDbEntity
  8
Part__Feature
100
AcDbLine
 10
110.057
 20
-9.24281
 30
0
 11
110.057
 21
-9.24281
 31
1.6
  0
ARC
  5
A0A
330
A02
100
AcDbEntity
  8
Part__Feature
100
AcDbCircle
 10
112.057
 20
-9.243
 30
1.6
 40
1.99999
100
AcDbArc
 50
89.996
 51
179.995
  0
LINE
  5
A0B
330
A02
100
AcDbEntity
  8
Part__Feature
100
AcDbLine
 10
112.057
 20
-7.24282
 30
0
 11
112.057
 21
-7.24282
 31
1.6
  0
ARC
  5
A0C
330
A02
100
AcDbEntity
  8
Part__Feature
100
AcDbCircle
 10
112.057
 20
-9.243
 30
0
 40
2.00018
100
AcDbArc
 50
0.00117448
 51
89.996
  0
LINE
  5
A0D
330
A02
100
AcDbEntity
  8
Part__Feature
100
AcDbLine
 10
112.057
 20
-7.24282
 30
0
 11
112.057
 21
-7.24282
 31
1.6
  0
ARC
  5
A0E
330
A02
100
AcDbEntity
  8
Part__Feature
100
AcDbCircle
 10
112.057
 20
-9.243
 30
1.6
 40
2.00018
100
AcDbArc
 50
0.00117448
 51
89.996
  0
LINE
  5
A0F
330
A02
100
AcDbEntity
  8
Part__Feature
100
AcDbLine
 10
114.057
 20
-9.24296
 30
0
 11
114.057
 21
-9.24296
 31
1.6
  0
LINE
  5
A10
330
A02
100
AcDbEntity
  8
Part__Feature
100
AcDbLine
 10
110.057
 20
-9.24281
 30
0
 11
110.057
 21
-9.24281
 31
1.6
  0
LINE
  5
A11
330
A02
100
AcDbEntity
  8
Part__Feature
100
AcDbLine
 10
110.057
 20
-9.24281
 30
1.6
 11
110.057
 21
-10.4927
 31
1.6
  0
LINE
  5
A12
330
A02
100
AcDbEntity
  8
Part__Feature
100
AcDbLine
 10
110.057
 20
-10.4927
 30
0
 11
110.057
 21
-10.4927
 31
1.6
  0
LINE
  5
A13
330
A02
100
AcDbEntity
  8
Part__Feature
100
AcDbLine
 10
110.057
 20
-9.24281
 30
0
 11
110.057
 21
-10.4927
 31
0
  0
ARC
  5
A14
330
A02
100
AcDbEntity
  8
Part__Feature
100
AcDbCircle
 10
112.057
 20
-9.243
 30
0
 40
1.99999
100
AcDbArc
 50
89.996
 51
179.995
  0
LINE
  5
A15
330
A02
100
AcDbEntity
  8
Part__Feature
100
AcDbLine
 10
110.057
 20
-9.24281
 30
0
 11
110.057
 21
-10.4927
 31
0
  0
ARC
  5
A16
330
A02
100
AcDbEntity
  8
Part__Feature
100
AcDbCircle
 10
109.557
 20
-10.493
 30
0
 40
0.49983
100
AcDbArc
 50
-90.0195
 51
0.0300327
  0
LINE
  5
A17
330
A02
100
AcDbEntity
  8
Part__Feature
100
AcDbLine
 10
109.557
 20
-10.9928
 30
0
 11
99.776
 21
-10.9933
 31
0
  0
ARC
  5
A18
330
A02
100
AcDbEntity
  8
Part__Feature
100
AcDbCircle
 10
99.776
 20
-10.493
 30
0
 40
0.50033
100
AcDbArc
 50
-179.961
 51
-90.0013
  0
LINE
  5
A19
330
A02
100
AcDbEntity
  8
Part__Feature
100
AcDbLine
 10
99.2757
 20
-10.4933
 30
0
 11
99.2758
 21
-9.24341
 31
0
  0
ARC
  5
A1A
330
A02
100
AcDbEntity
  8
Part__Feature
100
AcDbCircle
 10
97.276
 20
-9.243
 30
0
 40
1.99973
100
AcDbArc
 50
-0.0117468
 51
90.0052
  0
ARC
  5
A1B
330
A02
100
AcDbEntity
  8
Part__Feature
100
AcDbCircle
 10
97.276
 20
-9.243
 30
0
 40
2.00032
100
AcDbArc
 50
90.0052
 51
-179.993
  0
LINE
  5
A1C
330
A02
100
AcDbEntity
  8
Part__Feature
100
AcDbLine
 10
95.2757
 20
-9.24326
 30
0
 11
95.2756
 21
-54.0552
 31
0
  0
ARC
  5
A1D
330
A02
100
AcDbEntity
  8
Part__Feature
100
AcDbCircle
 10
97.008
 20
-54.055
 30
0
 40
1.73212
100
AcDbArc
 50
-179.994
 51
-120.002
  0
LINE
  5
A1E
330
A02
100
AcDbEntity
  8
Part__Feature
100
AcDbLine
 10
96.1419
 20
-55.555
 30
0
 11
106.88
 21
-61.7565
 31
0
  0
ARC
  5
A1F
330
A02
100
AcDbEntity
  8
Part__Feature
100
AcDbCircle
 10
107.88
 20
-60.024
 30
0
 40
2.00054
100
AcDbArc
 50
-119.988
 51
-30.0086
  0
LINE
  5
A20
330
A02
100
AcDbEntity
  8
Part__Feature
100
AcDbLine
 10
109.612
 20
-61.0245
 30
0
 11
112.31
 21
-56.3519
 31
0
  0
ARC
  5
A21
330
A02
100
AcDbEntity
  8
Part__Feature
100
AcDbCircle
 10
97.283
 20
-48.898
 30
0
 40
16.7743
100
AcDbArc
 50
-26.3827
 51
-0.443087
  0
LINE
  5
A22
330
A02
100
AcDbEntity
  8
Part__Feature
100
AcDbLine
 10
114.057
 20
-49.0277
 30
0
 11
114.057
 21
-9.24296
 31
0
  0
ARC
  5
A23
330
A02
100
AcDbEntity
  8
Part__Feature
100
AcDbCircle
 10
112.057
 20
-9.243
 30
0
 40
2.00018
100
AcDbArc
 50
0.00117448
 51
89.996
  0
CIRCLE
  5
A24
330
A02
100
AcDbEntity
  8
Part__Feature
100
AcDbCircle
 10
107.88
 20
-60.0247
 40
1.1
  0
CIRCLE
  5
A25
330
A02
100
AcDbEntity
  8
Part__Feature
100
AcDbCircle
 10
97.2759
 20
-9.24345
 40
1.1
  0
CIRCLE
  5
A26
330
A02
100
AcDbEntity
  8
Part__Feature
100
AcDbCircle
 10
112.057
 20
-9.243
 40
1.1
  0
ARC
  5
A27
330
A02
100
AcDbEntity
  8
Part__Feature
100
AcDbCircle
 10
112.057
 20
-9.243
 30
1.6
 40
1.99999
100
AcDbArc
 50
89.996
 51
179.995
  0
LINE
  5
A28
330
A02
100
AcDbEntity
  8
Part__Feature
100
AcDbLine
 10
110.057
 20
-9.24281
 30
1.6
 11
110.057
 21
-10.4927
 31
1.6
  0
ARC
  5
A29
330
A02
100
AcDbEntity
  8
Part__Feature
100
AcDbCircle
 10
109.557
 20
-10.493
 30
1.6
 40
0.49983
100
AcDbArc
 50
-90.0195
 51
0.0300327
  0
LINE
  5
A2A
330
A02
100
AcDbEntity
  8
Part__Feature
100
AcDbLine
 10
109.557
 20
-10.9928
 30
1.6
 11
99.776
 21
-10.9933
 31
1.6
  0
ARC
  5
A2B
330
A02
100
AcDbEntity
  8
Part__Feature
100
AcDbCircle
 10
99.776
 20
-10.493
 30
1.6
 40
0.50033
100
AcDbArc
 50
-179.961
 51
-90.0013
  0
LINE
  5
A2C
330
A02
100
AcDbEntity
  8
Part__Feature
100
AcDbLine
 10
99.2757
 20
-10.4933
 30
1.6
 11
99.2758
 21
-9.24341
 31
1.6
  0
ARC
  5
A2D
330
A02
100
AcDbEntity
  8
Part__Feature
100
AcDbCircle
 10
97.276
 20
-9.243
 30
1.6
 40
1.99973
100
AcDbArc
 50
-0.0117468
 51
90.0052
  0
ARC
  5
A2E
330
A02
100
AcDbEntity
  8
Part__Feature
100
AcDbCircle
 10
97.276
 20
-9.243
 30
1.6
 40
2.00032
100
AcDbArc
 50
90.0052
 51
-179.993
  0
LINE
  5
A2F
330
A02
100
AcDbEntity
  8
Part__Feature
100
AcDbLine
 10
95.2757
 20
-9.24326
 30
1.6
 11
95.2756
 21
-54.0552
 31
1.6
  0
ARC
  5
A30
330
A02
100
AcDbEntity
  8
Part__Feature
100
AcDbCircle
 10
97.008
 20
-54.055
 30
1.6
 40
1.73212
100
AcDbArc
 50
-179.994
 51
-120.002
  0
LINE
  5
A31
330
A02
100
AcDbEntity
  8
Part__Feature
100
AcDbLine
 10
96.1419
 20
-55.555
 30
1.6
 11
106.88
 21
-61.7565
 31
1.6
  0
ARC
  5
A32
330
A02
100
AcDbEntity
  8
Part__Feature
100
AcDbCircle
 10
107.88
 20
-60.024
 30
1.6
 40
2.00054
100
AcDbArc
 50
-119.988
 51
-30.0086
  0
LINE
  5
A33
330
A02
100
AcDbEntity
  8
Part__Feature
100
AcDbLine
 10
109.612
 20
-61.0245
 30
1.6
 11
112.31
 21
-56.3519
 31
1.6
  0
ARC
  5
A34
330
A02
100
AcDbEntity
  8
Part__Feature
100
AcDbCircle
 10
97.283
 20
-48.898
 30
1.6
 40
16.7743
100
AcDbArc
 50
-26.3827
 51
-0.443087
  0
LINE
  5
A35
330
A02
100
AcDbEntity
  8
Part__Feature
100
AcDbLine
 10
114.057
 20
-49.0277
 30
1.6
 11
114.057
 21
-9.24296
 31
1.6
  0
ARC
  5
A36
330
A02
100
AcDbEntity
  8
Part__Feature
100
AcDbCircle
 10
112.057
 20
-9.243
 30
1.6
 40
2.00018
100
AcDbArc
 50
0.00117448
 51
89.996
  0
CIRCLE
  5
A37
330
A02
100
AcDbEntity
  8
Part__Feature
100
AcDbCircle
 10
107.88
 20
-60.0247
 40
1.1
  0
CIRCLE
  5
A38
330
A02
100
AcDbEntity
  8
Part__Feature
100
AcDbCircle
 10
97.2759
 20
-9.24345
 40
1.1
  0
CIRCLE
  5
A39
330
A02
100
AcDbEntity
  8
Part__Feature
100
AcDbCircle
 10
112.057
 20
-9.243
 40
1.1
  0
LINE
  5
A3A
330
A02
100
AcDbEntity
  8
Part__Feature
100
AcDbLine
 10
114.057
 20
-49.0277
 30
0
 11
114.057
 21
-49.0277
 31
1.6
  0
LINE
  5
A3B
330
A02
100
AcDbEntity
  8
Part__Feature
100
AcDbLine
 10
114.057
 20
-49.0277
 30
1.6
 11
114.057
 21
-9.24296
 31
1.6
  0
LINE
  5
A3C
330
A02
100
AcDbEntity
  8
Part__Feature
100
AcDbLine
 10
114.057
 20
-9.24296
 30
0
 11
114.057
 21
-9.24296
 31
1.6
  0
LINE
  5
A3D
330
A02
100
AcDbEntity
  8
Part__Feature
100
AcDbLine
 10
114.057
 20
-49.0277
 30
0
 11
114.057
 21
-9.24296
 31
0
  0
ARC
  5
A3E
330
A02
100
AcDbEntity
  8
Part__Feature
100
AcDbCircle
 10
109.557
 20
-10.493
 30
0
 40
0.49983
100
AcDbArc
 50
-90.0195
 51
0.0300327
  0
LINE
  5
A3F
330
A02
100
AcDbEntity
  8
Part__Feature
100
AcDbLine
 10
110.057
 20
-10.4927
 30
0
 11
110.057
 21
-10.4927
 31
1.6
  0
ARC
  5
A40
330
A02
100
AcDbEntity
  8
Part__Feature
100
AcDbCircle
 10
109.557
 20
-10.493
 30
1.6
 40
0.49983
100
AcDbArc
 50
-90.0195
 51
0.0300327
  0
LINE
  5
A41
330
A02
100
AcDbEntity
  8
Part__Feature
100
AcDbLine
 10
109.557
 20
-10.9928
 30
0
 11
109.557
 21
-10.9928
 31
1.6
  0
ARC
  5
A42
330
A02
100
AcDbEntity
  8
Part__Feature
100
AcDbCircle
 10
97.283
 20
-48.898
 30
0
 40
16.7743
100
AcDbArc
 50
-26.3827
 51
-0.443087
  0
LINE
  5
A43
330
A02
100
AcDbEntity
  8
Part__Feature
100
AcDbLine
 10
114.057
 20
-49.0277
 30
0
 11
114.057
 21
-49.0277
 31
1.6
  0
ARC
  5
A44
330
A02
100
AcDbEntity
  8
Part__Feature
100
AcDbCircle
 10
97.283
 20
-48.898
 30
1.6
 40
16.7743
100
AcDbArc
 50
-26.3827
 51
-0.443087
  0
LINE
  5
A45
330
A02
100
AcDbEntity
  8
Part__Feature
100
AcDbLine
 10
112.31
 20
-56.3519
 30
0
 11
112.31
 21
-56.3519
 31
1.6
  0
LINE
  5
A46
330
A02
100
AcDbEntity
  8
Part__Feature
100
AcDbLine
 10
109.557
 20
-10.9928
 30
0
 11
109.557
 21
-10.9928
 31
1.6
  0
LINE
  5
A47
330
A02
100
AcDbEntity
  8
Part__Feature
100
AcDbLine
 10
109.557
 20
-10.9928
 30
1.6
 11
99.776
 21
-10.9933
 31
1.6
  0
LINE
  5
A48
330
A02
100
AcDbEntity
  8
Part__Feature
100
AcDbLine
 10
99.776
 20
-10.9933
 30
0
 11
99.776
 21
-10.9933
 31
1.6
  0
LINE
  5
A49
330
A02
100
AcDbEntity
  8
Part__Feature
100
AcDbLine
 10
109.557
 20
-10.9928
 30
0
 11
99.776
 21
-10.9933
 31
0
  0
LINE
  5
A4A
330
A02
100
AcDbEntity
  8
Part__Feature
100
AcDbLine
 10
109.612
 20
-61.0245
 30
0
 11
109.612
 21
-61.0245
 31
1.6
  0
LINE
  5
A4B
330
A02
100
AcDbEntity
  8
Part__Feature
100
AcDbLine
 10
109.612
 20
-61.0245
 30
1.6
 11
112.31
 21
-56.3519
 31
1.6
  0
LINE
  5
A4C
330
A02
100
AcDbEntity
  8
Part__Feature
100
AcDbLine
 10
112.31
 20
-56.3519
 30
0
 11
112.31
 21
-56.3519
 31
1.6
  0
LINE
  5
A4D
330
A02
100
AcDbEntity
  8
Part__Feature
100
AcDbLine
 10
109.612
 20
-61.0245
 30
0
 11
112.31
 21
-56.3519
 31
0
  0
ARC
  5
A4E
330
A02
100
AcDbEntity
  8
Part__Feature
100
AcDbCircle
 10
99.776
 20
-10.493
 30
0
 40
0.50033
100
AcDbArc
 50
-179.961
 51
-90.0013
  0
LINE
  5
A4F
330
A02
100
AcDbEntity
  8
Part__Feature
100
AcDbLine
 10
99.776
 20
-10.9933
 30
0
 11
99.776
 21
-10.9933
 31
1.6
  0
ARC
  5
A50
330
A02
100
AcDbEntity
  8
Part__Feature
100
AcDbCircle
 10
99.776
 20
-10.493
 30
1.6
 40
0.50033
100
AcDbArc
 50
-179.961
 51
-90.0013
  0
LINE
  5
A51
330
A02
100
AcDbEntity
  8
Part__Feature
100
AcDbLine
 10
99.2757
 20
-10.4933
 30
0
 11
99.2757
 21
-10.4933
 31
1.6
  0
ARC
  5
A52
330
A02
100
AcDbEntity
  8
Part__Feature
100
AcDbCircle
 10
107.88
 20
-60.024
 30
0
 40
2.00054
100
AcDbArc
 50
-119.988
 51
-30.0086
  0
LINE
  5
A53
330
A02
100
AcDbEntity
  8
Part__Feature
100
AcDbLine
 10
109.612
 20
-61.0245
 30
0
 11
109.612
 21
-61.0245
 31
1.6
  0
ARC
  5
A54
330
A02
100
AcDbEntity
  8
Part__Feature
100
AcDbCircle
 10
107.88
 20
-60.024
 30
1.6
 40
2.00054
100
AcDbArc
 50
-119.988
 51
-30.0086
  0
LINE
  5
A55
330
A02
100
AcDbEntity
  8
Part__Feature
100
AcDbLine
 10
106.88
 20
-61.7565
 30
0
 11
106.88
 21
-61.7565
 31
1.6
  0
LINE
  5
A56
330
A02
100
AcDbEntity
  8
Part__Feature
100
AcDbLine
 10
99.2757
 20
-10.4933
 30
0
 11
99.2757
 21
-10.4933
 31
1.6
  0
LINE
  5
A57
330
A02
100
AcDbEntity
  8
Part__Feature
100
AcDbLine
 10
99.2757
 20
-10.4933
 30
1.6
 11
99.2758
 21
-9.24341
 31
1.6
  0
LINE
  5
A58
330
A02
100
AcDbEntity
  8
Part__Feature
100
AcDbLine
 10
99.2758
 20
-9.24341
 30
0
 11
99.2758
 21
-9.24341
 31
1.6
  0
LINE
  5
A59
330
A02
100
AcDbEntity
  8
Part__Feature
100
AcDbLine
 10
99.2757
 20
-10.4933
 30
0
 11
99.2758
 21
-9.24341
 31
0
  0
LINE
  5
A5A
330
A02
100
AcDbEntity
  8
Part__Feature
100
AcDbLine
 10
96.1419
 20
-55.555
 30
0
 11
96.1419
 21
-55.555
 31
1.6
  0
LINE
  5
A5B
330
A02
100
AcDbEntity
  8
Part__Feature
100
AcDbLine
 10
96.1419
 20
-55.555
 30
1.6
 11
106.88
 21
-61.7565
 31
1.6
  0
LINE
  5
A5C
330
A02
100
AcDbEntity
  8
Part__Feature
100
AcDbLine
 10
106.88
 20
-61.7565
 30
0
 11
106.88
 21
-61.7565
 31
1.6
  0
LINE
  5
A5D
330
A02
100
AcDbEntity
  8
Part__Feature
100
AcDbLine
 10
96.1419
 20
-55.555
 30
0
 11
106.88
 21
-61.7565
 31
0
  0
ARC
  5
A5E
330
A02
100
AcDbEntity
  8
Part__Feature
100
AcDbCircle
 10
97.276
 20
-9.243
 30
0
 40
1.99973
100
AcDbArc
 50
-0.0117468
 51
90.0052
  0
LINE
  5
A5F
330
A02
100
AcDbEntity
  8
Part__Feature
100
AcDbLine
 10
97.2758
 20
-7.24327
 30
0
 11
97.2758
 21
-7.24327
 31
1.6
  0
ARC
  5
A60
330
A02
100
AcDbEntity
  8
Part__Feature
100
AcDbCircle
 10
97.276
 20
-9.243
 30
1.6
 40
1.99973
100
AcDbArc
 50
-0.0117468
 51
90.0052
  0
LINE
  5
A61
330
A02
100
AcDbEntity
  8
Part__Feature
100
AcDbLine
 10
99.2758
 20
-9.24341
 30
0
 11
99.2758
 21
-9.24341
 31
1.6
  0
ARC
  5
A62
330
A02
100
AcDbEntity
  8
Part__Feature
100
AcDbCircle
 10
97.008
 20
-54.055
 30
0
 40
1.73212
100
AcDbArc
 50
-179.994
 51
-120.002
  0
LINE
  5
A63
330
A02
100
AcDbEntity
  8
Part__Feature
100
AcDbLine
 10
96.1419
 20
-55.555
 30
0
 11
96.1419
 21
-55.555
 31
1.6
  0
ARC
  5
A64
330
A02
100
AcDbEntity
  8
Part__Feature
100
AcDbCircle
 10
97.008
 20
-54.055
 30
1.6
 40
1.73212
100
AcDbArc
 50
-179.994
 51
-120.002
  0
LINE
  5
A65
330
A02
100
AcDbEntity
  8
Part__Feature
100
AcDbLine
 10
95.2756
 20
-54.0552
 30
0
 11
95.2756
 21
-54.0552
 31
1.6
  0
ARC
  5
A66
330
A02
100
AcDbEntity
  8
Part__Feature
100
AcDbCircle
 10
97.276
 20
-9.243
 30
0
 40
2.00032
100
AcDbArc
 50
90.0052
 51
-179.993
  0
LINE
  5
A67
330
A02
100
AcDbEntity
  8
Part__Feature
100
AcDbLine
 10
95.2757
 20
-9.24326
 30
0
 11
95.2757
 21
-9.24326
 31
1.6
  0
ARC
  5
A68
330
A02
100
AcDbEntity
  8
Part__Feature
100
AcDbCircle
 10
97.276
 20
-9.243
 30
1.6
 40
2.00032
100
AcDbArc
 50
90.0052
 51
-179.993
  0
LINE
  5
A69
330
A02
100
AcDbEntity
  8
Part__Feature
100
AcDbLine
 10
97.2758
 20
-7.24327
 30
0
 11
97.2758
 21
-7.24327
 31
1.6
  0
LINE
  5
A6A
330
A02
100
AcDbEntity
  8
Part__Feature
100
AcDbLine
 10
95.2757
 20
-9.24326
 30
0
 11
95.2757
 21
-9.24326
 31
1.6
  0
LINE
  5
A6B
330
A02
100
AcDbEntity
  8
Part__Feature
100
AcDbLine
 10
95.2757
 20
-9.24326
 30
1.6
 11
95.2756
 21
-54.0552
 31
1.6
  0
LINE
  5
A6C
330
A02
100
AcDbEntity
  8
Part__Feature
100
AcDbLine
 10
95.2756
 20
-54.0552
 30
0
 11
95.2756
 21
-54.0552
 31
1.6
  0
LINE
  5
A6D
330
A02
100
AcDbEntity
  8
Part__Feature
100
AcDbLine
 10
95.2757
 20
-9.24326
 30
0
 11
95.2756
 21
-54.0552
 31
0
  0
CIRCLE
  5
A6E
330
A02
100
AcDbEntity
  8
Part__Feature
100
AcDbCircle
 10
107.88
 20
-60.0247
 40
1.1
  0
LINE
  5
A6F
330
A02
100
AcDbEntity
  8
Part__Feature
100
AcDbLine
 10
108.98
 20
-60.0247
 30
0
 11
108.98
 21
-60.0247
 31
1.6
  0
CIRCLE
  5
A70
330
A02
100
AcDbEntity
  8
Part__Feature
100
AcDbCircle
 10
107.88
 20
-60.0247
 40
1.1
  0
LINE
  5
A71
330
A02
100
AcDbEntity
  8
Part__Feature
100
AcDbLine
 10
108.98
 20
-60.0247
 30
0
 11
108.98
 21
-60.0247
 31
1.6
  0
CIRCLE
  5
A72
330
A02
100
AcDbEntity
  8
Part__Feature
100
AcDbCircle
 10
97.2759
 20
-9.24345
 40
1.1
  0
LINE
  5
A73
330
A02
100
AcDbEntity
  8
Part__Feature
100
AcDbLine
 10
98.3759
 20
-9.24345
 30
0
 11
98.3759
 21
-9.24345
 31
1.6
  0
CIRCLE
  5
A74
330
A02
100
AcDbEntity
  8
Part__Feature
100
AcDbCircle
 10
97.2759
 20
-9.24345
 40
1.1
  0
LINE
  5
A75
330
A02
100
AcDbEntity
  8
Part__Feature
100
AcDbLine
 10
98.3759
 20
-9.24345
 30
0
 11
98.3759
 21
-9.24345
 31
1.6
  0
CIRCLE
  5
A76
330
A02
100
AcDbEntity
  8
Part__Feature
100
AcDbCircle
 10
112.057
 20
-9.243
 40
1.1
  0
LINE
  5
A77
330
A02
100
AcDbEntity
  8
Part__Feature
100
AcDbLine
 10
113.157
 20
-9.243
 30
0
 11
113.157
 21
-9.243
 31
1.6
  0
CIRCLE
  5
A78
330
A02
100
AcDbEntity
  8
Part__Feature
100
AcDbCircle
 10
112.057
 20
-9.243
 40
1.1
  0
LINE
  5
A79
330
A02
100
AcDbEntity
  8
Part__Feature
100
AcDbLine
 10
113.157
 20
-9.243
 30
0
 11
113.157
 21
-9.243
 31
1.6
  0
ENDSEC
  0
SECTION
  2
OBJECTS
  0
DICTIONARY
  5
F000
330
0
100
AcDbDictionary
  3
ACAD_GROUP
350
F001
  0
DICTIONARY
  5
F001
330
F000
100
AcDbDictionary
  0
ENDSEC
  0
EOF